<svg width="412" height="105" viewBox="0 0 412 105" fill="none" xmlns="http://www.w3.org/2000/svg">
<path fill-rule="evenodd" clip-rule="evenodd" d="M40.4145 27.3575C19.9965 27.3575 4.97409 8.70466 0 0V30.4663C7.46114 37.3057 26.114 43.9378 40.4145 43.9378L44.7668 43.9378L61.5544 43.9378L80 43.9378V27.3575L61.5544 27.3575H40.4145ZM40.4145 45.5959C21.7369 45.5959 7.83217 40.4253 0.453422 37.6815L0 37.513V65.4922C14.5078 62.1762 26.5285 62.1762 40.4145 62.1762L44.7668 62.1762L61.5544 62.1762L80 62.1762V45.5959L61.5544 45.5959H40.4145ZM0 69.4301C7.04663 67.5648 24.9948 63.8342 40.4145 63.8342H61.5544L80 63.8342V82.0725L61.5544 82.0725L44.7668 82.0725L40.4145 82.0725C24.4974 82.0725 6.83938 88.7047 0 93.6788V69.4301Z" fill="url(#paint0_linear)"/>
<path fill-rule="evenodd" clip-rule="evenodd" d="M51.5812 68.3356C51.3552 68.2047 51.1188 68.0899 50.8734 67.9928C51.0308 67.4945 50.7777 66.9481 50.2599 66.8341C50.1445 66.8086 50.0283 66.7865 49.9117 66.7676C49.3878 66.683 48.951 67.0986 48.9146 67.6205L48.912 67.6205C48.6465 67.6205 48.3855 67.64 48.1304 67.6774C48.0178 67.1668 47.5252 66.8198 47.0196 66.98C46.9069 67.0157 46.7953 67.0546 46.6848 67.0966C46.1891 67.2851 46.0185 67.8629 46.2473 68.333C46.0195 68.4646 45.8023 68.6127 45.5974 68.7755C45.2446 68.3892 44.6443 68.3349 44.2864 68.7266C44.2066 68.8138 44.1294 68.9033 44.0547 68.995C43.7196 69.4061 43.8609 69.9917 44.294 70.2844C44.1632 70.5104 44.0484 70.7468 43.9513 70.9922C43.453 70.8349 42.9066 71.088 42.7926 71.6057C42.7672 71.7212 42.745 71.8373 42.7262 71.954C42.6415 72.4779 43.0572 72.9147 43.5791 72.9511L43.5791 72.9535C43.5791 73.219 43.5985 73.4801 43.636 73.7352C43.1253 73.8478 42.7783 74.3404 42.9385 74.8461C42.9742 74.9588 43.0131 75.0704 43.0551 75.1809C43.2437 75.6766 43.8215 75.8472 44.2916 75.6183C44.4233 75.8461 44.5713 76.0633 44.7341 76.2682C44.3478 76.6209 44.2934 77.2214 44.6851 77.5793C44.7723 77.659 44.8618 77.7363 44.9535 77.811C45.3646 78.146 45.9504 78.0048 46.243 77.5715C46.469 77.7023 46.7054 77.8171 46.9508 77.9142C46.7933 78.4126 47.0464 78.959 47.5643 79.0731C47.6797 79.0985 47.7958 79.1206 47.9125 79.1395C48.4365 79.2242 48.8733 78.8084 48.9096 78.2864L48.912 78.2864C49.1776 78.2864 49.4386 78.267 49.6937 78.2295C49.8062 78.7402 50.2989 79.0873 50.8046 78.9271C50.9173 78.8914 51.0289 78.8525 51.1394 78.8105C51.6352 78.622 51.8057 78.044 51.5768 77.5739C51.8045 77.4423 52.0217 77.2942 52.2266 77.1315C52.5794 77.5179 53.1798 77.5723 53.5378 77.1806C53.6176 77.0933 53.6948 77.0038 53.7695 76.9122C54.1046 76.501 53.9633 75.9152 53.5299 75.6226C53.6608 75.3966 53.7756 75.1602 53.8727 74.9149C54.3711 75.0723 54.9175 74.8192 55.0316 74.3014C55.057 74.186 55.0792 74.0698 55.098 73.9531C55.1827 73.4292 54.7669 72.9924 54.2449 72.956L54.2449 72.9535C54.2449 72.688 54.2255 72.427 54.1881 72.172C54.6988 72.0594 55.0459 71.5668 54.8856 71.0611C54.8499 70.9484 54.8111 70.8367 54.769 70.7262C54.5805 70.2305 54.0027 70.06 53.5325 70.2889C53.4009 70.061 53.2529 69.8439 53.0901 69.639C53.4764 69.2862 53.5308 68.6858 53.1391 68.3278C53.0518 68.2481 52.9623 68.1708 52.8707 68.0962C52.4596 67.7611 51.8739 67.9023 51.5812 68.3356ZM48.912 75.6199C50.3847 75.6199 51.5785 74.4261 51.5785 72.9535C51.5785 71.4808 50.3847 70.287 48.912 70.287C47.4394 70.287 46.2456 71.4808 46.2456 72.9535C46.2456 74.4261 47.4394 75.6199 48.912 75.6199Z" fill="#F2F2F2"/>
<path fill-rule="evenodd" clip-rule="evenodd" d="M68.9905 68.3356C68.7646 68.2047 68.5282 68.0899 68.2828 67.9928C68.4401 67.4945 68.187 66.9481 67.6693 66.8341C67.5538 66.8086 67.4377 66.7865 67.321 66.7676C66.7971 66.683 66.3604 67.0986 66.3239 67.6205L66.3214 67.6205C66.0559 67.6205 65.7949 67.64 65.5398 67.6774C65.4272 67.1668 64.9346 66.8198 64.4289 66.98C64.3163 67.0157 64.2046 67.0546 64.0941 67.0966C63.5984 67.2851 63.4279 67.8629 63.6567 68.333C63.4288 68.4646 63.2117 68.6127 63.0068 68.7755C62.654 68.3892 62.0536 68.3349 61.6957 68.7266C61.616 68.8138 61.5387 68.9033 61.464 68.995C61.129 69.4061 61.2702 69.9917 61.7034 70.2844C61.5725 70.5104 61.4577 70.7468 61.3607 70.9922C60.8623 70.8349 60.316 71.088 60.2019 71.6057C60.1765 71.7212 60.1544 71.8373 60.1355 71.954C60.0509 72.4779 60.4665 72.9147 60.9884 72.9511L60.9884 72.9535C60.9884 73.219 61.0079 73.4801 61.0453 73.7352C60.5347 73.8478 60.1877 74.3404 60.3479 74.8461C60.3836 74.9588 60.4225 75.0704 60.4645 75.1809C60.653 75.6766 61.2309 75.8472 61.701 75.6183C61.8326 75.8461 61.9807 76.0633 62.1434 76.2682C61.7571 76.6209 61.7027 77.2214 62.0944 77.5793C62.1817 77.659 62.2712 77.7363 62.3628 77.811C62.774 78.146 63.3597 78.0048 63.6524 77.5715C63.8783 77.7023 64.1148 77.8171 64.3601 77.9142C64.2027 78.4126 64.4558 78.959 64.9736 79.0731C65.0891 79.0985 65.2052 79.1206 65.3219 79.1395C65.8458 79.2242 66.2826 78.8084 66.319 78.2864L66.3214 78.2864C66.5869 78.2864 66.8479 78.267 67.103 78.2295C67.2156 78.7402 67.7082 79.0873 68.2139 78.9271C68.3266 78.8914 68.4383 78.8525 68.5488 78.8105C69.0446 78.622 69.2151 78.044 68.9861 77.5739C69.2139 77.4423 69.431 77.2942 69.6359 77.1315C69.9887 77.5179 70.5892 77.5723 70.9472 77.1806C71.0269 77.0933 71.1042 77.0038 71.1788 76.9122C71.5139 76.501 71.3726 75.9152 70.9393 75.6226C71.0702 75.3966 71.1849 75.1602 71.282 74.9149C71.7804 75.0723 72.3269 74.8192 72.4409 74.3014C72.4664 74.186 72.4885 74.0698 72.5074 73.9531C72.592 73.4292 72.1763 72.9924 71.6543 72.956L71.6543 72.9535C71.6543 72.688 71.6349 72.427 71.5974 72.172C72.1081 72.0594 72.4552 71.5668 72.295 71.0611C72.2593 70.9484 72.2204 70.8367 72.1784 70.7262C71.9899 70.2305 71.412 70.06 70.9419 70.2889C70.8102 70.061 70.6622 69.8439 70.4994 69.639C70.8858 69.2862 70.9401 68.6858 70.5484 68.3278C70.4612 68.2481 70.3717 68.1708 70.2801 68.0962C69.8689 67.7611 69.2832 67.9023 68.9905 68.3356ZM66.3214 75.6199C67.794 75.6199 68.9878 74.4261 68.9878 72.9535C68.9878 71.4808 67.794 70.287 66.3214 70.287C64.8487 70.287 63.6549 71.4808 63.6549 72.9535C63.6549 74.4261 64.8487 75.6199 66.3214 75.6199Z" fill="#F2F2F2"/>
<path fill-rule="evenodd" clip-rule="evenodd" d="M51.5812 31.4444C51.3552 31.3135 51.1188 31.1987 50.8734 31.1016C51.0308 30.6033 50.7777 30.0569 50.2599 29.9429C50.1445 29.9174 50.0283 29.8953 49.9117 29.8764C49.3878 29.7918 48.951 30.2074 48.9146 30.7293L48.912 30.7293C48.6465 30.7293 48.3855 30.7487 48.1304 30.7862C48.0178 30.2756 47.5252 29.9286 47.0196 30.0888C46.9069 30.1245 46.7953 30.1634 46.6848 30.2054C46.1891 30.3939 46.0185 30.9717 46.2473 31.4418C46.0195 31.5734 45.8023 31.7215 45.5974 31.8843C45.2446 31.498 44.6443 31.4437 44.2864 31.8354C44.2066 31.9226 44.1294 32.0121 44.0547 32.1037C43.7196 32.5149 43.8609 33.1005 44.294 33.3932C44.1632 33.6192 44.0484 33.8556 43.9513 34.101C43.453 33.9437 42.9066 34.1968 42.7926 34.7145C42.7672 34.83 42.745 34.9461 42.7262 35.0628C42.6415 35.5867 43.0572 36.0234 43.5791 36.0599L43.5791 36.0623C43.5791 36.3278 43.5985 36.5888 43.636 36.844C43.1253 36.9566 42.7783 37.4492 42.9385 37.9549C42.9742 38.0675 43.0131 38.1792 43.0551 38.2897C43.2437 38.7854 43.8215 38.9559 44.2916 38.7271C44.4233 38.9549 44.5713 39.172 44.7341 39.3769C44.3478 39.7297 44.2934 40.3301 44.6851 40.6881C44.7723 40.7678 44.8618 40.8451 44.9535 40.9198C45.3646 41.2548 45.9504 41.1136 46.243 40.6803C46.469 40.8111 46.7054 40.9259 46.9508 41.023C46.7933 41.5214 47.0464 42.0678 47.5643 42.1819C47.6797 42.2073 47.7958 42.2294 47.9125 42.2483C48.4365 42.333 48.8733 41.9172 48.9096 41.3952L48.912 41.3952C49.1776 41.3952 49.4386 41.3758 49.6937 41.3383C49.8062 41.849 50.2989 42.1961 50.8046 42.0359C50.9173 42.0002 51.0289 41.9613 51.1394 41.9193C51.6352 41.7308 51.8057 41.1528 51.5768 40.6827C51.8045 40.551 52.0217 40.403 52.2266 40.2403C52.5794 40.6267 53.1798 40.6811 53.5378 40.2894C53.6176 40.2021 53.6948 40.1126 53.7695 40.021C54.1046 39.6098 53.9633 39.024 53.5299 38.7314C53.6608 38.5054 53.7756 38.269 53.8727 38.0236C54.3711 38.1811 54.9175 37.928 55.0316 37.4102C55.057 37.2947 55.0792 37.1786 55.098 37.0619C55.1827 36.538 54.7669 36.1012 54.2449 36.0648L54.2449 36.0623C54.2449 35.7968 54.2255 35.5358 54.1881 35.2807C54.6988 35.1682 55.0459 34.6756 54.8856 34.1699C54.8499 34.0572 54.8111 33.9455 54.769 33.835C54.5805 33.3393 54.0027 33.1688 53.5325 33.3976C53.4009 33.1698 53.2529 32.9527 53.0901 32.7478C53.4764 32.395 53.5308 31.7946 53.1391 31.4366C53.0518 31.3569 52.9623 31.2796 52.8707 31.205C52.4596 30.8699 51.8739 31.0111 51.5812 31.4444ZM48.912 38.7287C50.3847 38.7287 51.5785 37.5349 51.5785 36.0623C51.5785 34.5896 50.3847 33.3958 48.912 33.3958C47.4394 33.3958 46.2456 34.5896 46.2456 36.0623C46.2456 37.5349 47.4394 38.7287 48.912 38.7287Z" fill="#F2F2F2"/>
<path fill-rule="evenodd" clip-rule="evenodd" d="M68.9905 31.4444C68.7646 31.3135 68.5282 31.1987 68.2828 31.1016C68.4401 30.6033 68.187 30.0569 67.6693 29.9429C67.5538 29.9174 67.4377 29.8953 67.321 29.8764C66.7971 29.7918 66.3604 30.2074 66.3239 30.7293L66.3214 30.7293C66.0559 30.7293 65.7949 30.7487 65.5398 30.7862C65.4272 30.2756 64.9346 29.9286 64.4289 30.0888C64.3163 30.1245 64.2046 30.1634 64.0941 30.2054C63.5984 30.3939 63.4279 30.9717 63.6567 31.4418C63.4288 31.5734 63.2117 31.7215 63.0068 31.8843C62.654 31.498 62.0536 31.4437 61.6957 31.8354C61.616 31.9226 61.5387 32.0121 61.464 32.1037C61.129 32.5149 61.2702 33.1005 61.7034 33.3932C61.5725 33.6192 61.4577 33.8556 61.3607 34.101C60.8623 33.9437 60.316 34.1968 60.2019 34.7145C60.1765 34.83 60.1544 34.9461 60.1355 35.0628C60.0509 35.5867 60.4665 36.0234 60.9884 36.0599L60.9884 36.0623C60.9884 36.3278 61.0079 36.5888 61.0453 36.844C60.5347 36.9566 60.1877 37.4492 60.3479 37.9549C60.3836 38.0675 60.4225 38.1792 60.4645 38.2897C60.653 38.7854 61.2309 38.9559 61.701 38.7271C61.8326 38.9549 61.9807 39.172 62.1434 39.3769C61.7571 39.7297 61.7027 40.3301 62.0944 40.6881C62.1817 40.7678 62.2712 40.8451 62.3628 40.9198C62.774 41.2548 63.3597 41.1136 63.6524 40.6803C63.8783 40.8111 64.1148 40.9259 64.3601 41.023C64.2027 41.5214 64.4558 42.0678 64.9736 42.1819C65.0891 42.2073 65.2052 42.2294 65.3219 42.2483C65.8458 42.333 66.2826 41.9172 66.319 41.3952L66.3214 41.3952C66.5869 41.3952 66.8479 41.3758 67.103 41.3383C67.2156 41.849 67.7082 42.1961 68.2139 42.0359C68.3266 42.0002 68.4383 41.9613 68.5488 41.9193C69.0446 41.7308 69.2151 41.1528 68.9861 40.6827C69.2139 40.551 69.431 40.403 69.6359 40.2403C69.9887 40.6267 70.5892 40.6811 70.9472 40.2894C71.0269 40.2021 71.1042 40.1126 71.1788 40.021C71.5139 39.6098 71.3726 39.024 70.9393 38.7314C71.0702 38.5054 71.1849 38.269 71.282 38.0236C71.7804 38.1811 72.3269 37.928 72.4409 37.4102C72.4664 37.2947 72.4885 37.1786 72.5074 37.0619C72.592 36.538 72.1763 36.1012 71.6543 36.0648L71.6543 36.0623C71.6543 35.7968 71.6349 35.5358 71.5974 35.2807C72.1081 35.1682 72.4552 34.6756 72.295 34.1699C72.2593 34.0572 72.2204 33.9455 72.1784 33.835C71.9899 33.3393 71.412 33.1688 70.9419 33.3976C70.8102 33.1698 70.6622 32.9527 70.4994 32.7478C70.8858 32.395 70.9401 31.7946 70.5484 31.4366C70.4612 31.3569 70.3717 31.2796 70.2801 31.205C69.8689 30.8699 69.2832 31.0111 68.9905 31.4444ZM66.3214 38.7287C67.794 38.7287 68.9878 37.5349 68.9878 36.0623C68.9878 34.5896 67.794 33.3958 66.3214 33.3958C64.8487 33.3958 63.6549 34.5896 63.6549 36.0623C63.6549 37.5349 64.8487 38.7287 66.3214 38.7287Z" fill="#F2F2F2"/>
<path fill-rule="evenodd" clip-rule="evenodd" d="M51.5812 49.2682C51.3552 49.1373 51.1188 49.0225 50.8734 48.9254C51.0308 48.4271 50.7777 47.8807 50.2599 47.7667C50.1445 47.7413 50.0283 47.7191 49.9117 47.7003C49.3878 47.6156 48.951 48.0312 48.9146 48.5532L48.912 48.5532C48.6465 48.5532 48.3855 48.5726 48.1304 48.61C48.0178 48.0994 47.5252 47.7524 47.0196 47.9126C46.9069 47.9483 46.7953 47.9872 46.6848 48.0292C46.1891 48.2177 46.0185 48.7955 46.2473 49.2656C46.0195 49.3973 45.8023 49.5453 45.5974 49.7081C45.2446 49.3219 44.6443 49.2675 44.2864 49.6592C44.2066 49.7464 44.1294 49.8359 44.0547 49.9276C43.7196 50.3387 43.8609 50.9243 44.294 51.217C44.1632 51.443 44.0484 51.6795 43.9513 51.9248C43.453 51.7675 42.9066 52.0206 42.7926 52.5384C42.7672 52.6538 42.745 52.7699 42.7262 52.8866C42.6415 53.4105 43.0572 53.8473 43.5791 53.8837L43.5791 53.8861C43.5791 54.1516 43.5985 54.4127 43.636 54.6678C43.1253 54.7804 42.7783 55.273 42.9385 55.7787C42.9742 55.8914 43.0131 56.003 43.0551 56.1135C43.2437 56.6093 43.8215 56.7798 44.2916 56.5509C44.4233 56.7787 44.5713 56.9959 44.7341 57.2008C44.3478 57.5536 44.2934 58.154 44.6851 58.5119C44.7723 58.5917 44.8618 58.6689 44.9535 58.7436C45.3646 59.0787 45.9504 58.9374 46.243 58.5041C46.469 58.635 46.7054 58.7497 46.9508 58.8468C46.7933 59.3452 47.0464 59.8916 47.5643 60.0057C47.6797 60.0311 47.7958 60.0533 47.9125 60.0721C48.4365 60.1568 48.8733 59.741 48.9096 59.219L48.912 59.219C49.1776 59.219 49.4386 59.1996 49.6937 59.1621C49.8062 59.6729 50.2989 60.02 50.8046 59.8597C50.9173 59.824 51.0289 59.7852 51.1394 59.7431C51.6352 59.5546 51.8057 58.9767 51.5768 58.5065C51.8045 58.3749 52.0217 58.2269 52.2266 58.0641C52.5794 58.4505 53.1798 58.5049 53.5378 58.1132C53.6176 58.0259 53.6948 57.9364 53.7695 57.8448C54.1046 57.4336 53.9633 56.8479 53.5299 56.5552C53.6608 56.3293 53.7756 56.0928 53.8727 55.8475C54.3711 56.005 54.9175 55.7518 55.0316 55.234C55.057 55.1186 55.0792 55.0024 55.098 54.8857C55.1827 54.3618 54.7669 53.925 54.2449 53.8886L54.2449 53.8861C54.2449 53.6206 54.2255 53.3597 54.1881 53.1046C54.6988 52.992 55.0459 52.4994 54.8856 51.9937C54.8499 51.881 54.8111 51.7694 54.769 51.6589C54.5805 51.1631 54.0027 50.9926 53.5325 51.2215C53.4009 50.9937 53.2529 50.7765 53.0901 50.5716C53.4764 50.2188 53.5308 49.6184 53.1391 49.2605C53.0518 49.1807 52.9623 49.1035 52.8707 49.0288C52.4596 48.6937 51.8739 48.835 51.5812 49.2682ZM48.912 56.5525C50.3847 56.5525 51.5785 55.3587 51.5785 53.8861C51.5785 52.4134 50.3847 51.2196 48.912 51.2196C47.4394 51.2196 46.2456 52.4134 46.2456 53.8861C46.2456 55.3587 47.4394 56.5525 48.912 56.5525Z" fill="#F2F2F2"/>
<path fill-rule="evenodd" clip-rule="evenodd" d="M68.9905 49.2682C68.7646 49.1373 68.5282 49.0225 68.2828 48.9254C68.4401 48.4271 68.187 47.8807 67.6693 47.7667C67.5538 47.7413 67.4377 47.7191 67.321 47.7003C66.7971 47.6156 66.3604 48.0312 66.3239 48.5532L66.3214 48.5532C66.0559 48.5532 65.7949 48.5726 65.5398 48.61C65.4272 48.0994 64.9346 47.7524 64.4289 47.9126C64.3163 47.9483 64.2046 47.9872 64.0941 48.0292C63.5984 48.2177 63.4279 48.7955 63.6567 49.2656C63.4288 49.3973 63.2117 49.5453 63.0068 49.7081C62.654 49.3219 62.0536 49.2675 61.6957 49.6592C61.616 49.7464 61.5387 49.8359 61.464 49.9276C61.129 50.3387 61.2702 50.9243 61.7034 51.217C61.5725 51.443 61.4577 51.6795 61.3607 51.9248C60.8623 51.7675 60.316 52.0206 60.2019 52.5384C60.1765 52.6538 60.1544 52.7699 60.1355 52.8866C60.0509 53.4105 60.4665 53.8473 60.9884 53.8837L60.9884 53.8861C60.9884 54.1516 61.0079 54.4127 61.0453 54.6678C60.5347 54.7804 60.1877 55.273 60.3479 55.7787C60.3836 55.8914 60.4225 56.003 60.4645 56.1135C60.653 56.6093 61.2309 56.7798 61.701 56.5509C61.8326 56.7787 61.9807 56.9959 62.1434 57.2008C61.7571 57.5536 61.7027 58.154 62.0944 58.5119C62.1817 58.5917 62.2712 58.6689 62.3628 58.7436C62.774 59.0787 63.3597 58.9374 63.6524 58.5041C63.8783 58.635 64.1148 58.7497 64.3601 58.8468C64.2027 59.3452 64.4558 59.8916 64.9736 60.0057C65.0891 60.0311 65.2052 60.0533 65.3219 60.0721C65.8458 60.1568 66.2826 59.741 66.319 59.219L66.3214 59.219C66.5869 59.219 66.8479 59.1996 67.103 59.1621C67.2156 59.6729 67.7082 60.02 68.2139 59.8597C68.3266 59.824 68.4383 59.7852 68.5488 59.7431C69.0446 59.5546 69.2151 58.9767 68.9861 58.5065C69.2139 58.3749 69.431 58.2269 69.6359 58.0641C69.9887 58.4505 70.5892 58.5049 70.9472 58.1132C71.0269 58.0259 71.1042 57.9364 71.1788 57.8448C71.5139 57.4336 71.3726 56.8479 70.9393 56.5552C71.0702 56.3293 71.1849 56.0928 71.282 55.8475C71.7804 56.005 72.3269 55.7518 72.4409 55.234C72.4664 55.1186 72.4885 55.0024 72.5074 54.8857C72.592 54.3618 72.1763 53.925 71.6543 53.8886L71.6543 53.8861C71.6543 53.6206 71.6349 53.3597 71.5974 53.1046C72.1081 52.992 72.4552 52.4994 72.295 51.9937C72.2593 51.881 72.2204 51.7694 72.1784 51.6589C71.9899 51.1631 71.412 50.9926 70.9419 51.2215C70.8102 50.9937 70.6622 50.7765 70.4994 50.5716C70.8858 50.2188 70.9401 49.6184 70.5484 49.2605C70.4612 49.1807 70.3717 49.1035 70.2801 49.0288C69.8689 48.6937 69.2832 48.835 68.9905 49.2682ZM66.3214 56.5525C67.794 56.5525 68.9878 55.3587 68.9878 53.8861C68.9878 52.4134 67.794 51.2196 66.3214 51.2196C64.8487 51.2196 63.6549 52.4134 63.6549 53.8861C63.6549 55.3587 64.8487 56.5525 66.3214 56.5525Z" fill="#F2F2F2"/>
<path d="M126.31 76.15V82H81.46V27.4H92.77V76.15H126.31ZM139.18 69.13C139.18 74.07 142.17 76.54 148.15 76.54H159.07V61.72H148.15C142.17 61.72 139.18 64.19 139.18 69.13ZM159.07 56.26C159.07 52.516 158.082 49.76 156.106 47.992C154.182 46.224 151.66 45.34 148.54 45.34C146.2 45.34 143.912 45.704 141.676 46.432C139.44 47.108 137.438 48.044 135.67 49.24L132.94 44.56C134.084 43.78 135.332 43.104 136.684 42.532C138.088 41.96 139.518 41.492 140.974 41.128C142.43 40.712 143.86 40.4 145.264 40.192C146.72 39.984 148.072 39.88 149.32 39.88C152.648 39.88 155.586 40.27 158.134 41.05C160.682 41.83 162.84 42.948 164.608 44.404C166.376 45.86 167.702 47.602 168.586 49.63C169.522 51.606 169.99 53.816 169.99 56.26V82H148.15C141.078 82 135.852 80.934 132.472 78.802C129.144 76.67 127.48 73.446 127.48 69.13C127.48 64.814 129.144 61.59 132.472 59.458C135.852 57.326 141.078 56.26 148.15 56.26H159.07ZM180.483 41.44H221.043C228.479 41.44 233.965 42.792 237.501 45.496C241.089 48.148 242.883 52.126 242.883 57.43V82H231.963V57.43C231.963 53.686 231.027 51.008 229.155 49.396C227.283 47.732 224.579 46.9 221.043 46.9H217.143V82H206.223V46.9H191.403V82H180.483V41.44ZM264.69 82H253.77V42.22H264.69V82ZM265.08 31.69C265.08 33.25 264.534 34.628 263.442 35.824C262.402 36.968 260.998 37.54 259.23 37.54C257.462 37.54 256.032 36.968 254.94 35.824C253.9 34.628 253.38 33.25 253.38 31.69C253.38 30.13 253.9 28.778 254.94 27.634C256.032 26.438 257.462 25.84 259.23 25.84C260.946 25.84 262.35 26.438 263.442 27.634C264.534 28.778 265.08 30.13 265.08 31.69ZM318.903 82H307.983V57.43C307.983 53.686 307.047 51.008 305.175 49.396C303.303 47.732 300.599 46.9 297.063 46.9H286.923V82H276.003V41.44H297.063C304.499 41.44 309.985 42.792 313.521 45.496C317.109 48.148 318.903 52.126 318.903 57.43V82ZM338.369 69.13C338.369 74.07 341.359 76.54 347.339 76.54H358.259V61.72H347.339C341.359 61.72 338.369 64.19 338.369 69.13ZM358.259 56.26C358.259 52.516 357.271 49.76 355.295 47.992C353.371 46.224 350.849 45.34 347.729 45.34C345.389 45.34 343.101 45.704 340.865 46.432C338.629 47.108 336.627 48.044 334.859 49.24L332.129 44.56C333.273 43.78 334.521 43.104 335.873 42.532C337.277 41.96 338.707 41.492 340.163 41.128C341.619 40.712 343.049 40.4 344.453 40.192C345.909 39.984 347.261 39.88 348.509 39.88C351.837 39.88 354.775 40.27 357.323 41.05C359.871 41.83 362.029 42.948 363.797 44.404C365.565 45.86 366.891 47.602 367.775 49.63C368.711 51.606 369.179 53.816 369.179 56.26V82H347.339C340.267 82 335.041 80.934 331.661 78.802C328.333 76.67 326.669 73.446 326.669 69.13C326.669 64.814 328.333 61.59 331.661 59.458C335.041 57.326 340.267 56.26 347.339 56.26H358.259ZM410.483 46.9H401.123C397.587 46.9 394.883 47.862 393.011 49.786C391.139 51.658 390.203 54.466 390.203 58.21V82H379.283V58.21C379.283 52.906 380.947 48.798 384.275 45.886C387.655 42.922 392.491 41.44 398.783 41.44H410.483V46.9Z" fill="#6FCF97"/>
<defs>
<linearGradient id="paint0_linear" x1="44.7668" y1="59.6891" x2="80" y2="59.6891" gradientUnits="userSpaceOnUse">
<stop stop-color="#56CCF2"/>
<stop offset="1" stop-color="#6FCF97"/>
</linearGradient>
</defs>
</svg>
